<svg version="1" xmlns="http://www.w3.org/2000/svg" width="1920" height="1920" viewBox="0 0 1440.000000 1440.000000"><path d="M691.8 180.5c-.2.1-4.8.6-10.3 1-5.5.4-11.3.8-13 1-6.5.6-17.1 1.7-18.6 2-.9.2-4 .6-7 1-3 .3-6.1.8-6.9 1-.8.3-3.4.7-5.7 1-9.1 1.1-38.6 7.7-53.8 11.9-25.2 7.1-37.1 11.1-61 20.8-51.9 21.1-104.2 53-147 89.9-13.5 11.7-44 41.8-53.1 52.4-6.7 7.9-9.3 10.9-12.4 14.5-1.2 1.4-4.3 5.2-6.8 8.5-2.6 3.3-5.2 6.6-6 7.4-.7.8-2.1 2.6-3 4-.9 1.4-2 3-2.5 3.6-.4.5-2.5 3.5-4.7 6.5s-4.3 5.9-4.7 6.5c-2.5 3.1-17.8 27.5-22.6 36-3.2 5.5-6.1 10.7-6.6 11.5-.6.8-4.8 9.1-9.5 18.5-11.9 23.9-21.5 46.9-28.8 69-3.1 9.5-11.5 38.3-12.2 41.9-.2 1.1-1.4 6.5-2.6 12-2.5 11.4-2.5 11.6-4.5 22.1-1.6 8.5-2 11.1-3.1 19-.3 2.7-.8 5.8-1 6.7-.1.9-.6 4.8-.9 8.5-.4 3.7-.9 8.1-1.1 9.8-2 16.3-2.6 73.4-1 91 .4 4.9 1 11 1.2 13.4.8 10 1.4 15.4 1.8 16 .2.3.7 3.3 1 6.6.3 3.3.8 6.9 1 8 .2 1.1.7 4 1.1 6.5.8 5.1 1.2 7.4 2 11 .2 1.4.7 4 1 5.9.3 1.9.7 3.7.9 4 .2.3.7 2.2 1 4.1 1.4 8.9 8.2 33.8 15.6 57 5.8 18.5 19.3 50.5 30.2 71.8 64.6 126.8 176.2 223.4 309.9 268.2 15.7 5.3 19.3 6.3 35.9 10.7 8.7 2.3 24 5.8 30 6.9 1.4.2 3.6.7 5 .9 4.6.9 6.7 1.3 10.6 2 2.2.3 5 .7 6.4 1 3 .5 16.4 2.2 23.5 3 2.8.3 6.6.8 8.5 1 23.6 2.7 73.8 2.8 103 .1 6.5-.6 17.5-1.8 19.1-2.1.9-.2 4-.6 7-1 3-.3 6.1-.8 6.9-1 .8-.3 3.3-.7 5.5-1 12.3-1.5 62-13.1 66.4-15.4.9-.5 2.1-1 2.6-1 1.8-.2 22.2-7 30.7-10.2 60.2-22.9 115.7-55.8 163.3-97 14-12.1 43.6-41.3 52.5-51.9 3-3.6 6-7 6.5-7.6 2.7-2.9 10.2-11.9 11.4-13.8.8-1.2 1.8-2.3 2.1-2.6.4-.3 4.5-5.7 9.2-12 10.6-14.2 23.7-34.2 32.3-49.1 3.6-6.3 6.9-12.1 7.5-12.9 2.6-4.2 18.5-36.9 22.5-46.5 5.9-13.8 8.6-20.9 13.7-36 2.3-6.6 4.5-12.9 4.9-14 .9-2.1 8.6-29.4 9.3-32.9.3-1.2 2-9.5 4-18.6 1.9-9.1 3.7-18.5 4.1-21 .3-2.5 1-6.8 1.5-9.5.5-2.8 1.1-7.3 1.5-10 .3-2.8.7-6.6.9-8.5 2.5-20.8 3.1-32.3 3.1-61 0-23.3-.7-42.2-1.9-53-.2-1.4-.7-5.6-1.1-9.4-.4-3.8-.8-7.9-1-9-.2-1.2-.9-5.7-1.5-10.1-.7-4.4-1.8-11.2-2.5-15-.8-3.9-1.7-8.6-2-10.5-1.4-8.1-5.8-26.5-9.1-38.1-2-6.8-3.7-13.1-3.9-13.9-.7-3.1-6.5-20-10.8-31.5-47.6-126.9-144-234-264.7-293.7-21.8-10.8-32.3-15.3-56.4-24.4-5.8-2.2-24.8-8.5-27-9-1.1-.2-4.7-1.2-8-2.3-5.4-1.8-27.5-7.4-33.5-8.6-1.3-.2-3-.6-3.9-.9-.9-.3-3.3-.7-5.2-1-1.9-.3-6-1-9-1.6-6.3-1.3-21.1-3.6-28.5-4.5-2.7-.3-6.1-.8-7.5-1-1.4-.3-6.1-.7-10.5-1.1-4.4-.3-9.8-.8-12-1.1-4.4-.5-67.1-1.3-67.7-.8z"/></svg>