<?xml version="1.0" encoding="UTF-8"?>
<svg width="24px" height="24px" viewBox="0 0 24 24" version="1.1" xmlns="http://www.w3.org/2000/svg" xmlns:xlink="http://www.w3.org/1999/xlink">
    <title>github_00</title>
    <g id="github_00" stroke="none" stroke-width="1" fill="none" fill-rule="evenodd">
        <g fill="#000" fill-opacity="0.92" fill-rule="nonzero" id="Shape">
            <path d="M8.02741935,19.1419355 C8.02741935,19.2387097 7.91612903,19.316129 7.77580645,19.316129 C7.61612903,19.3306452 7.50483871,19.2532258 7.50483871,19.1419355 C7.50483871,19.0451613 7.61612903,18.9677419 7.75645161,18.9677419 C7.9016129,18.9532258 8.02741935,19.0306452 8.02741935,19.1419355 Z M6.52258065,18.9241936 C6.48870968,19.0209678 6.58548387,19.1322581 6.73064516,19.1612903 C6.85645161,19.2096774 7.0016129,19.1612903 7.03064516,19.0645161 C7.05967742,18.9677419 6.96774194,18.8564516 6.82258065,18.8129032 C6.69677419,18.7790323 6.55645161,18.8274194 6.52258065,18.9241936 Z M8.66129032,18.8419355 C8.52096774,18.8758065 8.42419355,18.9677419 8.43870968,19.0790323 C8.45322581,19.1758065 8.57903226,19.2387097 8.72419355,19.2048387 C8.86451613,19.1709678 8.96129032,19.0790323 8.94677419,18.9822581 C8.93225806,18.8903226 8.8016129,18.8274194 8.66129032,18.8419355 Z M11.8451613,0.300000012 C5.13387097,0.300000012 0,5.3951613 0,12.1064516 C0,17.4725807 3.37741935,22.0645161 8.2016129,23.6806452 C8.82096774,23.7919355 9.03870968,23.4096774 9.03870968,23.0951613 C9.03870968,22.7951613 9.02419355,21.1403226 9.02419355,20.1241936 C9.02419355,20.1241936 5.63709677,20.85 4.92580645,18.6822581 C4.92580645,18.6822581 4.37419355,17.2741936 3.58064516,16.9112903 C3.58064516,16.9112903 2.47258065,16.1516129 3.65806452,16.166129 C3.65806452,16.166129 4.86290323,16.2629032 5.52580645,17.4145161 C6.58548387,19.2822581 8.36129032,18.7451613 9.05322581,18.4258065 C9.16451613,17.6516129 9.47903226,17.1145161 9.82741935,16.7951613 C7.12258065,16.4951613 4.39354839,16.1032258 4.39354839,11.4483871 C4.39354839,10.1177419 4.76129032,9.45000001 5.53548387,8.59838711 C5.40967742,8.28387098 4.9983871,6.98709679 5.66129032,5.31290324 C6.67258065,4.99838711 9,6.61935485 9,6.61935485 C9.96774194,6.34838711 11.0080645,6.20806453 12.0387097,6.20806453 C13.0693548,6.20806453 14.1096774,6.34838711 15.0774194,6.61935485 C15.0774194,6.61935485 17.4048387,4.9935484 18.416129,5.31290324 C19.0790323,6.9919355 18.6677419,8.28387098 18.5419355,8.59838711 C19.316129,9.45483872 19.7903226,10.1225807 19.7903226,11.4483871 C19.7903226,16.1177419 16.9403226,16.4903226 14.2354839,16.7951613 C14.6806452,17.1774194 15.0580645,17.9032258 15.0580645,19.0403226 C15.0580645,20.6709678 15.0435484,22.6887097 15.0435484,23.0854839 C15.0435484,23.4 15.266129,23.7822581 15.8806452,23.6709678 C20.7193548,22.0645161 24,17.4725807 24,12.1064516 C24,5.3951613 18.5564516,0.300000012 11.8451613,0.300000012 Z M4.70322581,16.9887097 C4.64032258,17.0370968 4.65483871,17.1483871 4.73709677,17.2403226 C4.81451613,17.3177419 4.92580645,17.3516129 4.98870968,17.2887097 C5.0516129,17.2403226 5.03709677,17.1290323 4.95483871,17.0370968 C4.87741935,16.9596774 4.76612903,16.9258065 4.70322581,16.9887097 Z M4.18064516,16.5967742 C4.14677419,16.6596774 4.19516129,16.7370968 4.29193548,16.7854839 C4.36935484,16.833871 4.46612903,16.8193549 4.5,16.7516129 C4.53387097,16.6887097 4.48548387,16.6112903 4.38870968,16.5629032 C4.29193548,16.533871 4.21451613,16.5483871 4.18064516,16.5967742 Z M5.7483871,18.3193549 C5.67096774,18.3822581 5.7,18.5274194 5.81129032,18.6193549 C5.92258065,18.7306452 6.06290323,18.7451613 6.12580645,18.6677419 C6.18870968,18.6048387 6.15967742,18.4596774 6.06290323,18.3677419 C5.95645161,18.2564516 5.81129032,18.2419355 5.7483871,18.3193549 Z M5.19677419,17.6080645 C5.11935484,17.6564516 5.11935484,17.7822581 5.19677419,17.8935484 C5.27419355,18.0048387 5.40483871,18.0532258 5.46774194,18.0048387 C5.54516129,17.9419355 5.54516129,17.816129 5.46774194,17.7048387 C5.4,17.5935484 5.27419355,17.5451613 5.19677419,17.6080645 Z"></path>
        </g>
    </g>
</svg>
