<?xml version="1.0" encoding="UTF-8"?>
<svg width="24px" height="24px" viewBox="0 0 24 24" version="1.1" xmlns="http://www.w3.org/2000/svg" xmlns:xlink="http://www.w3.org/1999/xlink">
    <title>linkedin_00</title>
    <g id="linkedin_00" stroke="none" stroke-width="1" fill="none" fill-rule="evenodd">
        <g fill="#000" fill-opacity="0.92" fill-rule="nonzero" id="Shape">
            <path d="M5.37201518,23.9946441 L0.396340103,23.9946441 L0.396340103,7.97500558 L5.37201518,7.97500558 L5.37201518,23.9946441 Z M2.88149967,5.78977907 C1.29078331,5.78977907 0,4.47221602 0,2.88149967 C0,1.29078331 1.29078331,0 2.88149967,0 C4.47221602,0 5.76299933,1.29078331 5.76299933,2.88149967 C5.76299933,4.47221602 4.47221602,5.78977907 2.88149967,5.78977907 Z M23.9946441,23.9946441 L19.0296809,23.9946441 L19.0296809,16.1963847 C19.0296809,14.337871 18.9921892,11.9544744 16.4427583,11.9544744 C13.8558358,11.9544744 13.4594956,13.9736666 13.4594956,16.0624861 L13.4594956,23.9946441 L8.48917652,23.9946441 L8.48917652,7.97500558 L13.2613256,7.97500558 L13.2613256,10.1602321 L13.3309529,10.1602321 C13.9950904,8.90158447 15.6179424,7.57330953 18.0388306,7.57330953 C23.0734211,7.57330953 24,10.8886409 24,15.1948226 L24,23.9946441 L23.9946441,23.9946441 Z"></path>
        </g>
    </g>
</svg>
