<?xml version="1.0" encoding="utf-8"?>
<!-- Generator: Adobe Illustrator 15.1.0, SVG Export Plug-In . SVG Version: 6.00 Build 0)  -->
<!DOCTYPE svg PUBLIC "-//W3C//DTD SVG 1.1//EN" "http://www.w3.org/Graphics/SVG/1.1/DTD/svg11.dtd">
<svg version="1.1" id="Layer_1" xmlns="http://www.w3.org/2000/svg" xmlns:xlink="http://www.w3.org/1999/xlink" x="0px" y="0px"
	 width="96px" height="96px" viewBox="0 0 96 96" enable-background="new 0 0 96 96" xml:space="preserve">
<g>
	<path d="M56.686,75.18c-1.393,0.25-1.857-0.607-1.857-1.322c0-0.893,0-3.857,0-7.537c0-2.572-0.857-4.215-1.857-5.072
		c6.107-0.679,12.538-3,12.538-13.538c0-3-1.071-5.465-2.822-7.358c0.286-0.715,1.215-3.501-0.286-7.287
		c-2.285-0.714-7.537,2.822-7.537,2.822c-2.179-0.607-4.536-0.929-6.857-0.929c-2.322,0-4.68,0.321-6.859,0.929
		c0,0-5.25-3.536-7.572-2.822c-1.465,3.786-0.535,6.572-0.25,7.287c-1.75,1.893-2.822,4.358-2.822,7.358
		c0,10.502,6.395,12.859,12.502,13.538c-0.785,0.715-1.5,1.893-1.75,3.68c-1.571,0.714-5.572,1.929-7.965-2.287
		c-1.501-2.607-4.216-2.821-4.216-2.821c-2.679-0.036-0.179,1.679-0.179,1.679c1.786,0.822,3.037,4.001,3.037,4.001
		c1.607,4.894,9.251,3.251,9.251,3.251c0,2.285,0.036,4.465,0.036,5.107c0,0.715-0.5,1.572-1.894,1.322
		C28.43,71.535,20.572,61.248,20.572,49.139c0-15.146,12.287-27.434,27.434-27.434c15.145,0,27.434,12.288,27.434,27.434
		C75.439,61.248,67.58,71.535,56.686,75.18z"/>
</g>
</svg>
