<?xml version="1.0" encoding="utf-8"?>
<!-- Generator: Adobe Illustrator 15.1.0, SVG Export Plug-In . SVG Version: 6.00 Build 0)  -->
<!DOCTYPE svg PUBLIC "-//W3C//DTD SVG 1.1//EN" "http://www.w3.org/Graphics/SVG/1.1/DTD/svg11.dtd">
<svg version="1.1" id="Layer_1" xmlns="http://www.w3.org/2000/svg" xmlns:xlink="http://www.w3.org/1999/xlink" x="0px" y="0px"
	 width="96px" height="96px" viewBox="0 0 96 96" enable-background="new 0 0 96 96" xml:space="preserve">
<g>
	<path fill="#FFFFFF" d="M27.145,34.636h-0.072c-3.965,0-6.5-2.715-6.5-6.108c0-3.465,2.643-6.108,6.644-6.108
		c4.036,0,6.537,2.644,6.573,6.108C33.824,31.921,31.252,34.636,27.145,34.636z M33.039,74.857H21.25V39.458h11.789V74.857z
		 M75.439,74.857H63.688V55.926c0-4.751-1.715-8.001-5.966-8.001c-3.251,0-5.18,2.179-6.037,4.287
		c-0.286,0.785-0.394,1.821-0.394,2.893v19.754H39.539c0.144-32.077,0-35.399,0-35.399h11.752v5.144h-0.07
		c1.535-2.429,4.322-5.965,10.68-5.965c7.752,0,13.539,5.072,13.539,15.932V74.857z"/>
</g>
</svg>
