<?xml version="1.0" encoding="utf-8"?>
<!-- Generator: Adobe Illustrator 15.1.0, SVG Export Plug-In . SVG Version: 6.00 Build 0)  -->
<!DOCTYPE svg PUBLIC "-//W3C//DTD SVG 1.1//EN" "http://www.w3.org/Graphics/SVG/1.1/DTD/svg11.dtd">
<svg version="1.1" id="Layer_1" xmlns="http://www.w3.org/2000/svg" xmlns:xlink="http://www.w3.org/1999/xlink" x="0px" y="0px"
	 width="96px" height="96px" viewBox="0 0 96 96" enable-background="new 0 0 96 96" xml:space="preserve">
<g>
	<path fill="#FFFFFF" d="M65.188,58.891c-7.93,10.252-14.574,15.396-20.075,15.396c-3.393,0-6.251-3.144-8.573-9.395
		c-1.572-5.716-3.144-11.466-4.715-17.217c-1.714-6.251-3.608-9.359-5.608-9.359c-0.429,0-1.929,0.893-4.537,2.715l-2.75-3.501
		c2.857-2.536,5.68-5.108,8.501-7.573c3.787-3.358,6.68-5.037,8.609-5.215c4.536-0.429,7.287,2.644,8.358,9.252
		c1.107,7.144,1.929,11.609,2.358,13.324c1.321,5.929,2.714,8.894,4.287,8.894c1.215,0,3.036-1.893,5.5-5.75
		c2.43-3.858,3.716-6.788,3.895-8.788c0.321-3.322-0.965-4.965-3.895-4.965c-1.393,0-2.821,0.321-4.322,0.929
		c2.858-9.359,8.324-13.896,16.396-13.646c5.965,0.179,8.787,4.072,8.43,11.645C76.797,41.28,72.832,49.031,65.188,58.891z"/>
</g>
</svg>
