<svg xmlns="http://www.w3.org/2000/svg" version="1.1" xmlns:xlink="http://www.w3.org/1999/xlink" xmlns:svgjs="http://svgjs.dev/svgjs" width="1920" height="192"><rect width="80" height="64" fill="#d50f72" x="0" y="0"></rect><rect width="80" height="64" fill="#f61f86" x="0" y="64"></rect><rect width="80" height="64" fill="#fd609c" x="0" y="128"></rect><rect width="80" height="64" fill="#a20555" x="80" y="0"></rect><rect width="80" height="64" fill="#c40a68" x="80" y="64"></rect><rect width="80" height="64" fill="#e6167b" x="80" y="128"></rect><rect width="80" height="64" fill="#d7291a" x="160" y="0"></rect><rect width="80" height="64" fill="#f53c2a" x="160" y="64"></rect><rect width="80" height="64" fill="#fb6e5b" x="160" y="128"></rect><rect width="80" height="64" fill="#a41b0f" x="240" y="0"></rect><rect width="80" height="64" fill="#c62415" x="240" y="64"></rect><rect width="80" height="64" fill="#e7301f" x="240" y="128"></rect><rect width="80" height="64" fill="#ae6106" x="320" y="0"></rect><rect width="80" height="64" fill="#cb720a" x="320" y="64"></rect><rect width="80" height="64" fill="#e88414" x="320" y="128"></rect><rect width="80" height="64" fill="#834803" x="400" y="0"></rect><rect width="80" height="64" fill="#9f5805" x="400" y="64"></rect><rect width="80" height="64" fill="#bc6907" x="400" y="128"></rect><rect width="80" height="64" fill="#917308" x="480" y="0"></rect><rect width="80" height="64" fill="#aa870a" x="480" y="64"></rect><rect width="80" height="64" fill="#c39b0d" x="480" y="128"></rect><rect width="80" height="64" fill="#6d5605" x="560" y="0"></rect><rect width="80" height="64" fill="#856907" x="560" y="64"></rect><rect width="80" height="64" fill="#9d7d09" x="560" y="128"></rect><rect width="80" height="64" fill="#6e810b" x="640" y="0"></rect><rect width="80" height="64" fill="#81980d" x="640" y="64"></rect><rect width="80" height="64" fill="#94ae10" x="640" y="128"></rect><rect width="80" height="64" fill="#526106" x="720" y="0"></rect><rect width="80" height="64" fill="#647709" x="720" y="64"></rect><rect width="80" height="64" fill="#778d0c" x="720" y="128"></rect><rect width="80" height="64" fill="#208e46" x="800" y="0"></rect><rect width="80" height="64" fill="#25a653" x="800" y="64"></rect><rect width="80" height="64" fill="#2abf5f" x="800" y="128"></rect><rect width="80" height="64" fill="#166a33" x="880" y="0"></rect><rect width="80" height="64" fill="#1d8240" x="880" y="64"></rect><rect width="80" height="64" fill="#229a4c" x="880" y="128"></rect><rect width="80" height="64" fill="#0e8a79" x="960" y="0"></rect><rect width="80" height="64" fill="#11a28e" x="960" y="64"></rect><rect width="80" height="64" fill="#14baa4" x="960" y="128"></rect><rect width="80" height="64" fill="#08685b" x="1040" y="0"></rect><rect width="80" height="64" fill="#0c7e6f" x="1040" y="64"></rect><rect width="80" height="64" fill="#109684" x="1040" y="128"></rect><rect width="80" height="64" fill="#098696" x="1120" y="0"></rect><rect width="80" height="64" fill="#0c9db0" x="1120" y="64"></rect><rect width="80" height="64" fill="#10b4ca" x="1120" y="128"></rect><rect width="80" height="64" fill="#056571" x="1200" y="0"></rect><rect width="80" height="64" fill="#087b8a" x="1200" y="64"></rect><rect width="80" height="64" fill="#0b91a3" x="1200" y="128"></rect><rect width="80" height="64" fill="#097fba" x="1280" y="0"></rect><rect width="80" height="64" fill="#1195d9" x="1280" y="64"></rect><rect width="80" height="64" fill="#24abf5" x="1280" y="128"></rect><rect width="80" height="64" fill="#045f8d" x="1360" y="0"></rect><rect width="80" height="64" fill="#0774ab" x="1360" y="64"></rect><rect width="80" height="64" fill="#0c8ac9" x="1360" y="128"></rect><rect width="80" height="64" fill="#4963f6" x="1440" y="0"></rect><rect width="80" height="64" fill="#6180fb" x="1440" y="64"></rect><rect width="80" height="64" fill="#7d9afd" x="1440" y="128"></rect><rect width="80" height="64" fill="#2e34e1" x="1520" y="0"></rect><rect width="80" height="64" fill="#3e54f2" x="1520" y="64"></rect><rect width="80" height="64" fill="#5472f9" x="1520" y="128"></rect><rect width="80" height="64" fill="#9432f7" x="1600" y="0"></rect><rect width="80" height="64" fill="#a35ffc" x="1600" y="64"></rect><rect width="80" height="64" fill="#b383fe" x="1600" y="128"></rect><rect width="80" height="64" fill="#7212c6" x="1680" y="0"></rect><rect width="80" height="64" fill="#8a1fec" x="1680" y="64"></rect><rect width="80" height="64" fill="#9c4bfa" x="1680" y="128"></rect><rect width="80" height="64" fill="#c110bb" x="1760" y="0"></rect><rect width="80" height="64" fill="#df23d8" x="1760" y="64"></rect><rect width="80" height="64" fill="#f54aed" x="1760" y="128"></rect><rect width="80" height="64" fill="#93058e" x="1840" y="0"></rect><rect width="80" height="64" fill="#b20aac" x="1840" y="64"></rect><rect width="80" height="64" fill="#d018ca" x="1840" y="128"></rect></svg>