<svg xmlns="http://www.w3.org/2000/svg" version="1.1" xmlns:xlink="http://www.w3.org/1999/xlink" xmlns:svgjs="http://svgjs.dev/svgjs" width="960" height="192"><rect width="160" height="64" fill="rgba(0, 0, 0, 0.92)" x="0" y="0"></rect><rect width="160" height="64" fill="rgba(0, 0, 0, 0.76)" x="0" y="64"></rect><rect width="160" height="64" fill="rgba(0, 0, 0, 0.6)" x="0" y="128"></rect><rect width="160" height="64" fill="#fa3f61" x="160" y="0"></rect><rect width="160" height="64" fill="#fd7382" x="160" y="64"></rect><rect width="160" height="64" fill="#fe9ca2" x="160" y="128"></rect><rect width="160" height="64" fill="#d01545" x="320" y="0"></rect><rect width="160" height="64" fill="#f22354" x="320" y="64"></rect><rect width="160" height="64" fill="#fc5c71" x="320" y="128"></rect><rect width="160" height="64" fill="rgba(0, 0, 0, 0.92)" x="480" y="0"></rect><rect width="160" height="64" fill="rgba(0, 0, 0, 0.76)" x="480" y="64"></rect><rect width="160" height="64" fill="rgba(0, 0, 0, 0.6)" x="480" y="128"></rect><rect width="160" height="64" fill="#8f77fd" x="640" y="0"></rect><rect width="160" height="64" fill="#a295fe" x="640" y="64"></rect><rect width="160" height="64" fill="#b8b1fe" x="640" y="128"></rect><rect width="160" height="64" fill="#7541f8" x="800" y="0"></rect><rect width="160" height="64" fill="#8567fc" x="800" y="64"></rect><rect width="160" height="64" fill="#9886fe" x="800" y="128"></rect></svg>