<?xml version="1.0" encoding="UTF-8"?>
<svg width="24px" height="24px" viewBox="0 0 24 24" version="1.1" xmlns="http://www.w3.org/2000/svg" xmlns:xlink="http://www.w3.org/1999/xlink">
    <title>angelist_00</title>
    <g id="github_00" stroke="none" stroke-width="1" fill="none" fill-rule="evenodd">
        <g fill="#FFF" fill-opacity="0.88" fill-rule="nonzero" id="Shape">
          <path d="M5.90132 17.1475C5.86015 17.1072 5.81884 17.0667 5.79121 17.0126C5.51665 17.2849 5.51665 17.5036 5.68183 17.9412C5.73541 18.3787 6.01221 18.8162 6.289 19.1979C6.84037 19.9078 7.50335 20.4524 8.38732 20.6712C8.88511 20.7806 9.43647 20.7806 9.87846 20.4524C10.4321 20.0707 10.7088 19.4703 10.5414 18.8162C10.5414 18.793 10.5321 18.7697 10.5213 18.7426C10.5061 18.7046 10.4879 18.659 10.4879 18.5952C10.874 18.651 11.2602 18.7046 11.5906 18.4881C11.5906 18.7604 11.5906 19.0327 11.6464 19.3073C11.7022 19.7984 11.8138 20.2895 12.0326 20.727C12.3094 21.1623 12.642 21.4369 13.1933 21.5462C13.2491 21.2739 13.1933 20.9993 13.1375 20.7806C13.084 20.5082 13.0282 20.2895 12.9165 20.0707C12.5304 19.0885 12.6955 18.1599 13.1933 17.2849C13.9121 16.0839 14.9055 15.2111 16.2314 14.7178C16.564 14.6084 16.8386 14.499 17.1712 14.3361C17.3364 14.2825 17.5016 14.1731 17.4458 13.9544C17.3922 13.6798 17.3364 13.4633 17.0596 13.4075C16.7828 13.3539 16.564 13.3539 16.2872 13.3539C15.1265 13.3539 13.9679 13.3539 12.863 13.1351C12.3652 13.0258 11.8674 12.8628 11.4812 12.5882C10.9276 12.2065 10.7089 11.6596 10.7624 11.0056C10.7624 10.6774 10.9834 10.5123 11.2602 10.4029C11.6464 10.2957 11.979 10.2957 12.3652 10.2957C14.1331 10.4587 15.9011 10.6216 17.6132 11.2221C17.7477 11.2757 17.8693 11.3293 17.9909 11.3828C18.1176 11.4386 18.2443 11.4944 18.3855 11.5503C18.8275 11.769 19.1043 12.1507 19.2695 12.5882C19.4347 13.0793 19.4905 13.6262 19.4905 14.1731C19.4905 15.2647 19.4347 16.4121 19.0485 17.4501C18.1646 19.9078 16.564 21.7092 14.0215 22.5284C11.8138 23.2383 9.65746 22.966 7.67076 21.7092C6.34481 20.89 5.40504 19.689 4.85367 18.2135C4.63268 17.6666 4.52107 17.0661 4.68625 16.4657C4.85367 15.8652 5.18404 15.4277 5.68183 15.1018C6.01221 14.883 6.34481 14.883 6.67518 15.1553C6.9631 15.3584 7.19022 15.5924 7.425 15.8344C7.50512 15.917 7.58614 16.0005 7.67076 16.0839C8.27794 16.6844 8.77349 17.3943 9.1619 18.1599C9.1898 18.2146 9.21714 18.2693 9.24448 18.324C9.27183 18.3787 9.29918 18.4334 9.32709 18.4881C9.3829 18.8162 9.32709 19.0327 8.99449 19.1979C8.60831 19.3609 8.27794 19.3609 7.89176 19.1979C7.44977 19.0327 7.11717 18.651 6.7868 18.2693C6.6484 18.1052 6.52395 17.9412 6.3995 17.7771C6.27505 17.613 6.15061 17.449 6.01221 17.2849C5.98516 17.2297 5.94331 17.1887 5.90132 17.1475Z"/>
          <path d="M12.421 9.36711V9.42069C12.2219 9.42069 12.0185 9.3998 11.8145 9.37883C11.2818 9.32411 10.7446 9.26892 10.2669 9.58364C9.93292 8.67626 9.61257 7.76887 9.29211 6.8612C8.97638 5.96688 8.66054 5.07229 8.33151 4.17714C8.11275 3.57667 7.94533 2.9762 7.94533 2.31992C7.89176 2.10116 7.94533 1.88463 8.00114 1.66364C8.16632 1.11897 8.71992 0.956014 9.21771 1.28192C9.49228 1.50068 9.65746 1.77525 9.76908 2.04758C10.1553 2.9762 10.5414 3.95838 10.874 4.887C11.3148 6.06655 11.7213 7.28035 12.121 8.47364C12.2213 8.77304 12.3211 9.07116 12.421 9.36711Z"/>
          <path d="M16.6451 9.96773C16.6313 9.98126 16.6176 9.99465 16.6176 10.0212C16.0323 9.88806 15.4828 9.7907 14.9702 9.69989C14.8552 9.67952 14.7421 9.65948 14.6309 9.63945V9.53007C14.763 9.1374 14.8933 8.74465 15.0235 8.3522C15.5995 6.61631 16.1734 4.88633 16.8944 3.19496C17.0596 2.75744 17.2806 2.31992 17.6132 1.9382C17.7784 1.71944 18.0552 1.61006 18.3297 1.61006C18.6623 1.66364 18.9391 1.88463 18.9927 2.31992C19.0454 2.78544 18.9509 3.15157 18.8463 3.55713C18.8401 3.58135 18.8338 3.60571 18.8275 3.63024C18.1645 5.76204 17.4458 7.83803 16.6734 9.91178C16.6734 9.93997 16.6592 9.95392 16.6451 9.96773Z"/>
          <path d="M11.537 16.2469C11.5906 16.3563 11.5906 16.4657 11.5906 16.575C11.5906 17.1755 11.0392 17.5595 10.4879 17.3407C10.0994 17.1755 9.76908 16.9032 9.49228 16.6308C8.55473 15.6464 7.72434 14.6084 7.11717 13.4075C7.06335 13.2735 7.0225 13.126 6.98159 12.9782C6.93936 12.8257 6.89706 12.673 6.84037 12.5347V12.4789C6.7868 11.6596 7.83595 11.0056 8.55473 11.3315C8.88511 11.4967 9.1619 11.769 9.3829 12.0413C10.0994 12.97 10.653 14.008 11.095 15.0459C11.1594 15.2164 11.2156 15.3784 11.2701 15.5353C11.3553 15.7809 11.4362 16.0139 11.537 16.2469Z"/>
          <path d="M14.2852 14.4965C13.6492 14.9672 13.0686 15.3969 12.642 16.0304C12.5654 15.834 12.4889 15.6418 12.4135 15.4525C12.2163 14.9575 12.0273 14.4827 11.8674 14.008C12.642 14.2825 13.4701 14.3919 14.3541 14.4455C14.3311 14.4625 14.3081 14.4795 14.2852 14.4965Z"/>
        </g>
    </g>
</svg>
