<?xml version="1.0" encoding="UTF-8"?>
<svg width="24px" height="24px" viewBox="0 0 24 24" version="1.1" xmlns="http://www.w3.org/2000/svg" xmlns:xlink="http://www.w3.org/1999/xlink">
  <g id="github_00" stroke="none" stroke-width="1" fill="none" fill-rule="evenodd">
      <g fill="#000" fill-opacity="0.92" fill-rule="nonzero" id="Shape">
          <path d="M6.06801 13.9544C5.95863 13.6798 5.84702 13.4075 5.73541 13.1351C5.46084 12.3695 5.57022 11.6596 6.12382 11.0592C6.5658 10.5681 7.11717 10.1841 7.83595 10.1305C8.27793 10.077 8.66411 10.1841 8.99449 10.4029C9.05029 10.4587 9.1061 10.4587 9.21771 10.5123C9.1619 10.3493 9.1061 10.2399 9.05029 10.077C8.49893 8.38269 7.89176 6.68842 7.33816 4.99638C7.11717 4.28652 6.95198 3.57667 6.7868 2.86682C6.7868 2.21054 6.84037 1.61006 7.06136 1.06316C7.50335 0.134548 8.33151 -0.0819796 8.99449 0.0274003C9.43647 0.134548 9.71327 0.409114 9.93426 0.737255C10.4321 1.3913 10.8182 2.10116 11.2044 2.86682C11.979 4.3959 12.5304 6.03437 13.084 7.67284C13.1933 8.00098 13.305 8.27331 13.4143 8.60145C13.4143 8.65503 13.4701 8.65503 13.5237 8.71083C13.6353 8.38269 13.8005 8.05455 13.9121 7.67284C14.3541 6.30671 14.8497 4.9428 15.5126 3.68605C15.9011 2.86682 16.343 1.99178 16.9502 1.28192C17.006 1.11897 17.1712 1.00959 17.2806 0.900208C18.0552 0.190354 19.1043 0.409114 19.6021 1.06316C20.0419 1.61006 20.1535 2.21054 20.0977 2.86682C19.9883 3.79543 19.7115 4.72404 19.4347 5.65266C18.9391 7.12594 18.3855 8.60145 17.8878 10.077C17.8878 10.1305 17.8342 10.1841 17.8342 10.2399C17.9436 10.2957 18.0552 10.2957 18.1645 10.3493C18.8275 10.5681 19.4905 10.8404 19.8767 11.4409C20.1535 11.8784 20.3187 12.3695 20.4303 12.8628C20.5955 13.6798 20.5955 14.499 20.5397 15.3205C20.4861 16.4121 20.2651 17.5036 19.8767 18.4881C19.0485 20.5082 17.7226 22.0909 15.7336 23.0753C14.7403 23.5664 13.6353 23.8946 12.5304 23.9481C10.9834 24.1133 9.49228 23.8946 8.05694 23.2941C6.17739 22.5284 4.30007 20.6176 3.74871 18.8698C3.47191 17.9947 3.36253 17.1755 3.47191 16.2469C3.6371 15.1018 4.35588 14.3361 5.46084 14.008C5.68183 14.008 5.90283 14.008 6.06801 13.9544ZM5.79121 17.0126C5.84702 17.1219 5.95863 17.1755 6.01221 17.2849C6.289 17.613 6.51 17.9412 6.7868 18.2693C7.11717 18.651 7.44977 19.0327 7.89176 19.1979C8.27793 19.3609 8.60831 19.3609 8.99449 19.1979C9.32709 19.0327 9.3829 18.8162 9.32709 18.4881C9.27128 18.3787 9.21771 18.2693 9.1619 18.1599C8.77349 17.3943 8.27794 16.6844 7.67076 16.0839C7.33816 15.7558 7.06136 15.4277 6.67518 15.1553C6.34481 14.883 6.01221 14.883 5.68183 15.1018C5.18404 15.4277 4.85367 15.8652 4.68625 16.4657C4.52107 17.0661 4.63268 17.6666 4.85367 18.2135C5.40504 19.689 6.34481 20.89 7.67076 21.7092C9.65746 22.966 11.8138 23.2383 14.0215 22.5284C16.564 21.7092 18.1645 19.9078 19.0485 17.4501C19.4347 16.4121 19.4905 15.2647 19.4905 14.1731C19.4905 13.6262 19.4347 13.0793 19.2695 12.5882C19.1043 12.1507 18.8275 11.769 18.3855 11.5503C18.1087 11.4409 17.8878 11.3315 17.6132 11.2221C15.9011 10.6216 14.1331 10.4587 12.3652 10.2957C11.979 10.2957 11.6464 10.2957 11.2602 10.4029C10.9834 10.5123 10.7624 10.6774 10.7624 11.0056C10.7089 11.6596 10.9276 12.2065 11.4812 12.5882C11.8674 12.8628 12.3652 13.0258 12.863 13.1351C13.9679 13.3539 15.1265 13.3539 16.2872 13.3539C16.564 13.3539 16.7828 13.3539 17.0596 13.4075C17.3364 13.4633 17.3922 13.6798 17.4458 13.9544C17.5016 14.1731 17.3364 14.2825 17.1712 14.3361C16.8386 14.499 16.564 14.6084 16.2314 14.7178C14.9055 15.2111 13.9121 16.0839 13.1933 17.2849C12.6955 18.1599 12.5304 19.0885 12.9165 20.0707C13.0282 20.2895 13.084 20.5082 13.1375 20.7806C13.1933 20.9993 13.2491 21.2739 13.1933 21.5462C12.642 21.4369 12.3094 21.1623 12.0326 20.727C11.8138 20.2895 11.7022 19.7984 11.6464 19.3073C11.5906 19.0327 11.5906 18.7604 11.5906 18.4881C11.2602 18.7046 10.874 18.651 10.4879 18.5952C10.4879 18.7046 10.5414 18.7604 10.5414 18.8162C10.7089 19.4703 10.4321 20.0707 9.87846 20.4524C9.43647 20.7806 8.88511 20.7806 8.38732 20.6712C7.50335 20.4524 6.84037 19.9078 6.289 19.1979C6.01221 18.8162 5.73541 18.3787 5.68183 17.9412C5.51665 17.5036 5.51665 17.2849 5.79121 17.0126ZM12.421 9.42069V9.36711C11.9232 7.8916 11.4254 6.36251 10.874 4.887C10.5414 3.95838 10.1553 2.9762 9.76908 2.04758C9.65746 1.77525 9.49228 1.50068 9.21771 1.28192C8.71992 0.956014 8.16632 1.11897 8.00114 1.66364C7.94533 1.88463 7.89176 2.10116 7.94533 2.31992C7.94533 2.9762 8.11275 3.57667 8.33151 4.17714C8.99449 5.9808 9.60389 7.78222 10.2669 9.58364C10.9276 9.14835 11.7022 9.42069 12.421 9.42069ZM16.6176 10.0212C16.6176 9.96759 16.6734 9.96759 16.6734 9.91178C17.4458 7.83803 18.1645 5.76204 18.8275 3.63024C18.9391 3.19496 19.0485 2.81324 18.9927 2.31992C18.9391 1.88463 18.6623 1.66364 18.3297 1.61006C18.0552 1.61006 17.7784 1.71944 17.6132 1.9382C17.2806 2.31992 17.0596 2.75744 16.8944 3.19496C16.0104 5.26871 15.3475 7.40051 14.6309 9.53007C14.6309 9.53007 14.6309 9.58364 14.6309 9.63945C15.2381 9.74883 15.9011 9.85821 16.6176 10.0212ZM11.5906 16.575C11.5906 16.4657 11.5906 16.3563 11.537 16.2469C11.3718 15.8652 11.2602 15.4835 11.095 15.0459C10.653 14.008 10.0994 12.97 9.3829 12.0413C9.1619 11.769 8.88511 11.4967 8.55473 11.3315C7.83595 11.0056 6.7868 11.6596 6.84037 12.4789V12.5347C6.95198 12.807 7.00779 13.1351 7.11717 13.4075C7.72434 14.6084 8.55473 15.6464 9.49228 16.6308C9.76908 16.9032 10.0994 17.1755 10.4879 17.3407C11.0392 17.5595 11.5906 17.1755 11.5906 16.575ZM12.642 16.0304C13.084 15.3741 13.6911 14.9366 14.3541 14.4455C13.4701 14.3919 12.642 14.2825 11.8674 14.008C12.0884 14.6642 12.3652 15.3205 12.642 16.0304Z"/>
      </g>
  </g>
</svg>
