<?xml version="1.0" encoding="UTF-8"?>
<svg width="24px" height="24px" viewBox="0 0 24 24" version="1.1" xmlns="http://www.w3.org/2000/svg" xmlns:xlink="http://www.w3.org/1999/xlink">
    <title>vimeo_00</title>
    <g id="vimeo_00" stroke="none" stroke-width="1" fill="none" fill-rule="evenodd">
        <g fill="#000" fill-opacity="0.92" transform="translate(0.000000, 1.000000)" id="Shape">
            <path d="M23.9888213,5.41353645 C23.8816805,7.74920552 22.2531406,10.9473579 19.0924875,15.0079936 C15.8300507,19.2507686 13.0711755,21.3721561 10.810505,21.3721561 C9.41231779,21.3721561 8.22841214,20.0811096 7.25878805,17.4990168 C5.37311027,10.5777222 4.5695544,6.52244355 3.010656,6.52244355 C2.82851667,6.52244355 2.20174309,6.90279333 1.12497822,7.65277881 L0,6.19566416 C2.7642322,3.76892543 5.40525251,1.06897769 7.0605776,0.9189806 C8.93018427,0.73684127 10.0765906,2.01717362 10.5105108,4.74926359 C12.0479811,14.4722897 12.728325,15.9401184 15.5246995,11.5366322 C16.5264658,9.9509486 17.0675267,8.7456148 17.1425253,7.91527373 C17.3996632,5.45639276 15.2247053,5.62246097 13.7515195,6.25459159 C14.9300681,2.39216636 17.1853816,0.51720266 20.5121029,0.62434344 C22.9656268,0.68862791 24.1281043,2.29038262 23.9888213,5.41353645 Z"></path>
        </g>
    </g>
</svg>
