<svg width="24" height="24" viewBox="0 0 24 24" fill="none" xmlns="http://www.w3.org/2000/svg">
<path d="M3.49702 17.3976L0 6.12915H3.25608L5.32041 14.2304L7.56481 6.12915H10.8307L13.0736 14.2304L15.138 6.12915H18.393L14.8544 17.3976H11.385L9.19763 9.26171L6.96637 17.3976H3.49702Z" fill="black" fill-opacity="0.92"/>
<path d="M23.9882 15.6356C23.9882 14.5907 23.1411 13.7436 22.0961 13.7436C21.0512 13.7436 20.2041 14.5907 20.2041 15.6356C20.2041 16.6806 21.0512 17.5277 22.0961 17.5277C23.1411 17.5277 23.9882 16.6806 23.9882 15.6356Z" fill="black" fill-opacity="0.92"/>
<path d="M23.9882 7.89205C23.9882 6.84713 23.1411 6 22.0961 6C21.0512 6 20.2041 6.84713 20.2041 7.89205C20.2041 8.93701 21.0512 9.78409 22.0961 9.78409C23.1411 9.78409 23.9882 8.93701 23.9882 7.89205Z" fill="black" fill-opacity="0.92"/>
</svg>
