<?xml version="1.0" encoding="utf-8"?>
<!-- Generator: Adobe Illustrator 15.1.0, SVG Export Plug-In . SVG Version: 6.00 Build 0)  -->
<!DOCTYPE svg PUBLIC "-//W3C//DTD SVG 1.1//EN" "http://www.w3.org/Graphics/SVG/1.1/DTD/svg11.dtd">
<svg version="1.1" id="Layer_1" xmlns="http://www.w3.org/2000/svg" xmlns:xlink="http://www.w3.org/1999/xlink" x="0px" y="0px"
	 width="96px" height="96px" viewBox="0 0 96 96" enable-background="new 0 0 96 96" xml:space="preserve">
<g>
	<path fill="#000" fill-opacity="0.92" d="M32.647,26.206c7.716,0,14.396,2.179,14.396,11.145c0,4.537-2.107,7.466-6.144,9.395
		c5.537,1.571,8.216,5.75,8.216,11.395c0,9.145-7.681,13.074-15.861,13.074H11.429V26.206H32.647z M31.361,44.388
		c3.537,0,6.037-1.536,6.037-5.358c0-4.144-3.215-5.144-6.787-5.144h-9.288v10.502H31.361z M31.897,63.57
		c4.036,0,7.323-1.43,7.323-5.966c0-4.608-2.75-6.43-7.109-6.43H21.324V63.57H31.897z M76.084,61.105h7.895
		c-2.43,7.465-7.466,10.966-15.253,10.966c-10.288,0-16.682-6.966-16.682-17.11c0-9.787,6.751-17.253,16.682-17.253
		c10.216,0,15.86,8.037,15.86,17.682c0,0.571-0.036,1.144-0.072,1.679H61.01c0,5.216,2.75,8.287,8.002,8.287
		C71.727,65.355,75.227,63.892,76.084,61.105z M59.188,29.242v4.429h18.254v-4.429H59.188z M61.01,51.425h14.574
		c-0.393-4.322-2.644-6.965-7.145-6.965C64.153,44.459,61.295,47.138,61.01,51.425z"/>
</g>
</svg>
