<?xml version="1.0" encoding="UTF-8"?>
<svg width="24px" height="24px" viewBox="0 0 24 24" version="1.1" xmlns="http://www.w3.org/2000/svg" xmlns:xlink="http://www.w3.org/1999/xlink">
    <!-- Generator: Sketch 48.2 (47327) - http://www.bohemiancoding.com/sketch -->
    <title>curriculum_vitae_00</title>
    <desc>Created with Sketch.</desc>
    <defs></defs>
    <g id="Page-1" stroke="none" stroke-width="1" fill="none" fill-rule="evenodd">
        <g id="curriculum_vitae_00">
            <path d="M3,2 L19,2 L19,24 L3,24 L3,2 Z M5,6 L5,7 L10,7 L10,6 L5,6 Z M5,9 L5,10 L10,10 L10,9 L5,9 Z M5,12 L5,13 L10,13 L10,12 L5,12 Z M5,15 L5,16 L10,16 L10,15 L5,15 Z M5,18 L5,19 L10,19 L10,18 L5,18 Z M12,6 L12,7 L17,7 L17,6 L12,6 Z M12,9 L12,10 L17,10 L17,9 L12,9 Z M12,12 L12,13 L17,13 L17,12 L12,12 Z M12,15 L12,16 L17,16 L17,15 L12,15 Z M12,18 L12,19 L17,19 L17,18 L12,18 Z" id="Shape" fill-opacity="0.96" fill="#FAFAFA"></path>
            <path d="M5,6 L10,6 L10,7 L5,7 L5,6 Z M5,9 L10,9 L10,10 L5,10 L5,9 Z M5,12 L10,12 L10,13 L5,13 L5,12 Z M5,15 L10,15 L10,16 L5,16 L5,15 Z M5,18 L10,18 L10,19 L5,19 L5,18 Z M12,6 L17,6 L17,7 L12,7 L12,6 Z M12,9 L17,9 L17,10 L12,10 L12,9 Z M12,12 L17,12 L17,13 L12,13 L12,12 Z M12,15 L17,15 L17,16 L12,16 L12,15 Z M12,18 L17,18 L17,19 L12,19 L12,18 Z" id="Shape" fill-opacity="0.48" fill="#FAFAFA"></path>
            <path d="M5,12 L5,2 L19,2 L19,22 L5,22 L5,12 L5,0 L21,0 L21,22 L5,22 L5,12 Z" id="Shape" fill-opacity="0.72" fill="#FFFFFF"></path>
        </g>
    </g>
</svg>